<svg xmlns="http://www.w3.org/2000/svg" width="720" height="960" viewBox="0 0 720 960" fill="none">
  <defs>
    <linearGradient id="paper" x1="0" y1="0" x2="0" y2="1">
      <stop offset="0" stop-color="#ffffff" stop-opacity="0.92"/>
      <stop offset="1" stop-color="#ffffff" stop-opacity="0.82"/>
    </linearGradient>
    <filter id="shadow" x="-20%" y="-20%" width="140%" height="140%">
      <feDropShadow dx="0" dy="18" stdDeviation="20" flood-color="#19241f" flood-opacity="0.14"/>
    </filter>
  </defs>

  <rect x="0" y="0" width="720" height="960" fill="#f7f7f6"/>

  <g filter="url(#shadow)">
    <path d="M168 108h384a28 28 0 0 1 28 28v688a28 28 0 0 1-28 28H168a28 28 0 0 1-28-28V136a28 28 0 0 1 28-28Z" fill="url(#paper)" stroke="#2f6b57" stroke-opacity="0.22" stroke-width="2"/>
  </g>

  <g fill="#171412" opacity="0.86">
    <text x="360" y="170" font-family="ui-sans-serif, system-ui, -apple-system, Segoe UI, sans-serif" font-size="18" font-weight="800" text-anchor="middle" letter-spacing="2">LIBRARY STAMP</text>
    <text x="360" y="198" font-family="ui-sans-serif, system-ui, -apple-system, Segoe UI, sans-serif" font-size="12" font-weight="650" text-anchor="middle" opacity="0.7">Cafe Stamp Vibe</text>
  </g>

  <g>
    <rect x="206" y="232" width="308" height="64" rx="18" fill="#ffffff" fill-opacity="0.7" stroke="#171412" stroke-opacity="0.18"/>
    <g fill="#2f6b57" opacity="0.82" font-family="ui-sans-serif, system-ui, -apple-system, Segoe UI, sans-serif">
      <text x="360" y="274" font-size="24" font-weight="900" text-anchor="middle">APPROVED</text>
    </g>
  </g>

  <g stroke="#171412" stroke-opacity="0.18" stroke-width="2">
    <line x1="188" y1="326" x2="532" y2="326"/>
  </g>

  <g font-family="ui-sans-serif, system-ui, -apple-system, Segoe UI, sans-serif" fill="#171412">
    <text x="200" y="372" font-size="12" font-weight="800" opacity="0.6">NAME</text>
    <text x="200" y="400" font-size="16" font-weight="800">Your Name</text>

    <text x="200" y="446" font-size="12" font-weight="800" opacity="0.6">BOOK</text>
    <text x="200" y="474" font-size="14" font-weight="650" opacity="0.92">A Tiny Receipt-Like Memory</text>
    <text x="200" y="498" font-size="12" font-weight="650" opacity="0.6">Author Name</text>

    <text x="200" y="548" font-size="12" font-weight="800" opacity="0.6">DATE</text>
    <text x="200" y="574" font-size="14" font-weight="650">2026-01-23</text>
  </g>

  <g>
    <rect x="200" y="612" width="320" height="112" rx="20" fill="#ffffff" fill-opacity="0.72" stroke="#171412" stroke-opacity="0.18"/>
    <g stroke="#171412" stroke-opacity="0.18" stroke-width="2">
      <path d="M224 646h272"/>
      <path d="M224 676h240"/>
      <path d="M224 706h208"/>
    </g>
    <g fill="#171412" opacity="0.7" font-family="ui-sans-serif, system-ui, -apple-system, Segoe UI, sans-serif">
      <text x="224" y="636" font-size="11" font-weight="800">STAMP NOTE</text>
    </g>
  </g>

  <g>
    <rect x="200" y="748" width="154" height="100" rx="18" fill="#ffffff" fill-opacity="0.7" stroke="#171412" stroke-opacity="0.18"/>
    <g stroke="#171412" stroke-opacity="0.35" stroke-width="10" stroke-linecap="round">
      <path d="M222 790h110"/>
      <path d="M222 820h80" opacity="0.7"/>
    </g>
  </g>

  <g font-family="ui-sans-serif, system-ui, -apple-system, Segoe UI, sans-serif" fill="#171412" opacity="0.72">
    <text x="374" y="782" font-size="12" font-weight="800">STYLE</text>
    <text x="374" y="806" font-size="12" font-weight="650">Mix with your own colors</text>
    <text x="374" y="828" font-size="12" font-weight="650">and save as JPEG.</text>
  </g>
</svg>
