<svg xmlns="http://www.w3.org/2000/svg" width="720" height="960" viewBox="0 0 720 960" fill="none">
  <defs>
    <linearGradient id="paper" x1="0" y1="0" x2="0" y2="1">
      <stop offset="0" stop-color="#ffffff" stop-opacity="0.92"/>
      <stop offset="1" stop-color="#ffffff" stop-opacity="0.82"/>
    </linearGradient>
    <filter id="shadow" x="-20%" y="-20%" width="140%" height="140%">
      <feDropShadow dx="0" dy="18" stdDeviation="20" flood-color="#19241f" flood-opacity="0.14"/>
    </filter>
  </defs>

  <rect x="0" y="0" width="720" height="960" fill="#f7f7f6"/>

  <g filter="url(#shadow)">
    <path d="M160 112h400a28 28 0 0 1 28 28v680a28 28 0 0 1-28 28H160a28 28 0 0 1-28-28V140a28 28 0 0 1 28-28Z" fill="url(#paper)" stroke="#2f6b57" stroke-opacity="0.22" stroke-width="2"/>
  </g>

  <g fill="#171412" opacity="0.86">
    <text x="360" y="176" font-family="ui-sans-serif, system-ui, -apple-system, Segoe UI, sans-serif" font-size="18" font-weight="700" text-anchor="middle" letter-spacing="2">BOOK RECEIPT</text>
    <text x="360" y="204" font-family="ui-sans-serif, system-ui, -apple-system, Segoe UI, sans-serif" font-size="12" font-weight="600" text-anchor="middle" opacity="0.7">Sample Preview</text>
  </g>

  <g stroke="#171412" stroke-opacity="0.2" stroke-width="2">
    <line x1="176" y1="236" x2="544" y2="236"/>
  </g>

  <g font-family="ui-sans-serif, system-ui, -apple-system, Segoe UI, sans-serif" fill="#171412">
    <text x="188" y="286" font-size="12" font-weight="700" opacity="0.6">BORROWER</text>
    <text x="188" y="312" font-size="16" font-weight="700">Your Name</text>

    <text x="188" y="362" font-size="12" font-weight="700" opacity="0.6">RENTAL DATE</text>
    <text x="188" y="388" font-size="14" font-weight="600">2026-01-23</text>

    <text x="388" y="362" font-size="12" font-weight="700" opacity="0.6">RETURN DATE</text>
    <text x="388" y="388" font-size="14" font-weight="600">2026-02-06</text>
  </g>

  <g stroke="#171412" stroke-opacity="0.16" stroke-width="2">
    <line x1="176" y1="424" x2="544" y2="424"/>
  </g>

  <g font-family="ui-sans-serif, system-ui, -apple-system, Segoe UI, sans-serif" fill="#171412">
    <text x="188" y="468" font-size="12" font-weight="700" opacity="0.6">ITEMS</text>
    <text x="188" y="504" font-size="15" font-weight="700">01</text>
    <text x="228" y="504" font-size="14" font-weight="600" opacity="0.9">The Book Title Goes Here</text>
    <text x="228" y="528" font-size="12" font-weight="600" opacity="0.6">Author Name</text>

    <text x="188" y="580" font-size="15" font-weight="700">02</text>
    <text x="228" y="580" font-size="14" font-weight="600" opacity="0.9">Another Great Book Title</text>
    <text x="228" y="604" font-size="12" font-weight="600" opacity="0.6">Author Name</text>
  </g>

  <g stroke="#171412" stroke-opacity="0.16" stroke-width="2">
    <line x1="176" y1="652" x2="544" y2="652"/>
  </g>

  <g>
    <rect x="188" y="692" width="120" height="120" rx="16" fill="#ffffff" fill-opacity="0.7" stroke="#171412" stroke-opacity="0.18"/>
    <g stroke="#171412" stroke-opacity="0.35">
      <path d="M204 712h88M204 736h88M204 760h88M204 784h88"/>
      <path d="M220 700v104M248 700v104M276 700v104"/>
    </g>
  </g>

  <g font-family="ui-sans-serif, system-ui, -apple-system, Segoe UI, sans-serif" fill="#171412" opacity="0.72">
    <text x="328" y="726" font-size="12" font-weight="700">NOTE</text>
    <text x="328" y="752" font-size="12" font-weight="600">Add a short message</text>
    <text x="328" y="774" font-size="12" font-weight="600">and export as JPEG.</text>
  </g>
</svg>
