<svg xmlns="http://www.w3.org/2000/svg" width="720" height="960" viewBox="0 0 720 960" fill="none">
  <defs>
    <linearGradient id="paper" x1="0" y1="0" x2="0" y2="1">
      <stop offset="0" stop-color="#ffffff" stop-opacity="0.92"/>
      <stop offset="1" stop-color="#ffffff" stop-opacity="0.82"/>
    </linearGradient>
    <filter id="shadow" x="-20%" y="-20%" width="140%" height="140%">
      <feDropShadow dx="0" dy="18" stdDeviation="20" flood-color="#19241f" flood-opacity="0.14"/>
    </filter>
  </defs>

  <rect x="0" y="0" width="720" height="960" fill="#f7f7f6"/>

  <g filter="url(#shadow)">
    <path d="M220 112h280a28 28 0 0 1 28 28v680a28 28 0 0 1-28 28H220a28 28 0 0 1-28-28V140a28 28 0 0 1 28-28Z" fill="url(#paper)" stroke="#2f6b57" stroke-opacity="0.22" stroke-width="2"/>
  </g>

  <g fill="#171412" opacity="0.86">
    <text x="360" y="168" font-family="ui-sans-serif, system-ui, -apple-system, Segoe UI, sans-serif" font-size="18" font-weight="900" text-anchor="middle" letter-spacing="2">MINI</text>
    <text x="360" y="196" font-family="ui-sans-serif, system-ui, -apple-system, Segoe UI, sans-serif" font-size="12" font-weight="650" text-anchor="middle" opacity="0.7">Movie Receipt</text>
  </g>

  <g stroke="#171412" stroke-opacity="0.18" stroke-width="2">
    <line x1="240" y1="228" x2="480" y2="228"/>
  </g>

  <g font-family="ui-sans-serif, system-ui, -apple-system, Segoe UI, sans-serif" fill="#171412">
    <text x="248" y="270" font-size="12" font-weight="800" opacity="0.6">TITLE</text>
    <text x="248" y="298" font-size="16" font-weight="900">Movie Title</text>

    <text x="248" y="344" font-size="12" font-weight="800" opacity="0.6">DATE</text>
    <text x="248" y="370" font-size="13" font-weight="750">2026-01-23</text>

    <text x="248" y="416" font-size="12" font-weight="800" opacity="0.6">RATING</text>
    <text x="248" y="442" font-size="13" font-weight="800">ALL</text>
  </g>

  <g stroke="#171412" stroke-opacity="0.16" stroke-width="2">
    <line x1="240" y1="472" x2="480" y2="472"/>
  </g>

  <g>
    <rect x="248" y="502" width="224" height="92" rx="18" fill="#ffffff" fill-opacity="0.72" stroke="#171412" stroke-opacity="0.18"/>
    <g stroke="#171412" stroke-opacity="0.26" stroke-width="10" stroke-linecap="round">
      <path d="M270 548h180"/>
      <path d="M270 576h140" opacity="0.7"/>
    </g>
  </g>

  <g stroke="#171412" stroke-opacity="0.16" stroke-width="2">
    <line x1="240" y1="626" x2="480" y2="626"/>
  </g>

  <g>
    <rect x="248" y="656" width="224" height="160" rx="18" fill="#ffffff" fill-opacity="0.7" stroke="#171412" stroke-opacity="0.18"/>
    <g fill="#171412" opacity="0.72" font-family="ui-sans-serif, system-ui, -apple-system, Segoe UI, sans-serif">
      <text x="270" y="692" font-size="11" font-weight="800">MEMO</text>
      <text x="270" y="718" font-size="12" font-weight="650">Short review</text>
      <text x="270" y="740" font-size="12" font-weight="650">fits nicely.</text>
    </g>
    <g stroke="#171412" stroke-opacity="0.18" stroke-width="2">
      <path d="M270 770h180"/>
      <path d="M270 796h160"/>
    </g>
  </g>
</svg>
