<svg xmlns="http://www.w3.org/2000/svg" width="720" height="960" viewBox="0 0 720 960" fill="none">
  <defs>
    <linearGradient id="paper" x1="0" y1="0" x2="0" y2="1">
      <stop offset="0" stop-color="#ffffff" stop-opacity="0.92"/>
      <stop offset="1" stop-color="#ffffff" stop-opacity="0.82"/>
    </linearGradient>
    <filter id="shadow" x="-20%" y="-20%" width="140%" height="140%">
      <feDropShadow dx="0" dy="18" stdDeviation="20" flood-color="#19241f" flood-opacity="0.14"/>
    </filter>
  </defs>

  <rect x="0" y="0" width="720" height="960" fill="#f7f7f6"/>

  <g filter="url(#shadow)">
    <path d="M150 108h420a28 28 0 0 1 28 28v688a28 28 0 0 1-28 28H150a28 28 0 0 1-28-28V136a28 28 0 0 1 28-28Z" fill="url(#paper)" stroke="#2f6b57" stroke-opacity="0.22" stroke-width="2"/>
  </g>

  <g fill="#171412" opacity="0.86">
    <text x="360" y="170" font-family="ui-sans-serif, system-ui, -apple-system, Segoe UI, sans-serif" font-size="18" font-weight="800" text-anchor="middle" letter-spacing="2">MOVIE RECEIPT</text>
    <text x="360" y="198" font-family="ui-sans-serif, system-ui, -apple-system, Segoe UI, sans-serif" font-size="12" font-weight="650" text-anchor="middle" opacity="0.7">Ticket Stub</text>
  </g>

  <g stroke="#171412" stroke-opacity="0.18" stroke-width="2">
    <line x1="170" y1="232" x2="550" y2="232"/>
  </g>

  <g>
    <rect x="178" y="264" width="160" height="220" rx="18" fill="#ffffff" fill-opacity="0.78" stroke="#171412" stroke-opacity="0.18"/>
    <path d="M206 312h104" stroke="#171412" stroke-opacity="0.25" stroke-width="10" stroke-linecap="round"/>
    <path d="M206 350h92" stroke="#171412" stroke-opacity="0.2" stroke-width="10" stroke-linecap="round"/>
    <path d="M206 388h80" stroke="#171412" stroke-opacity="0.16" stroke-width="10" stroke-linecap="round"/>
    <path d="M206 430h110" stroke="#2f6b57" stroke-opacity="0.35" stroke-width="10" stroke-linecap="round"/>
  </g>

  <g font-family="ui-sans-serif, system-ui, -apple-system, Segoe UI, sans-serif" fill="#171412">
    <text x="360" y="294" font-size="12" font-weight="800" opacity="0.6">TITLE</text>
    <text x="360" y="324" font-size="18" font-weight="900">Movie Title</text>
    <text x="360" y="350" font-size="13" font-weight="700" opacity="0.7">Original Title</text>

    <text x="360" y="398" font-size="12" font-weight="800" opacity="0.6">DATE</text>
    <text x="360" y="424" font-size="14" font-weight="700">2026-01-23</text>

    <text x="360" y="470" font-size="12" font-weight="800" opacity="0.6">RATING</text>
    <text x="360" y="496" font-size="14" font-weight="800">15+</text>
  </g>

  <g stroke="#171412" stroke-opacity="0.16" stroke-width="2">
    <line x1="170" y1="536" x2="550" y2="536"/>
  </g>

  <g>
    <rect x="178" y="572" width="372" height="120" rx="20" fill="#ffffff" fill-opacity="0.72" stroke="#171412" stroke-opacity="0.18"/>
    <g stroke="#171412" stroke-opacity="0.28" stroke-width="10" stroke-linecap="round">
      <path d="M206 620h316"/>
      <path d="M206 656h260" opacity="0.7"/>
    </g>
  </g>

  <g>
    <rect x="178" y="724" width="372" height="132" rx="20" fill="#ffffff" fill-opacity="0.7" stroke="#171412" stroke-opacity="0.18"/>
    <g stroke="#171412" stroke-opacity="0.26" stroke-width="2">
      <path d="M206 754h316"/>
      <path d="M206 782h316"/>
      <path d="M206 810h316"/>
    </g>
    <g fill="#171412" opacity="0.72" font-family="ui-sans-serif, system-ui, -apple-system, Segoe UI, sans-serif">
      <text x="206" y="746" font-size="11" font-weight="800">MEMO</text>
      <text x="206" y="772" font-size="12" font-weight="650">Write a short review,</text>
      <text x="206" y="796" font-size="12" font-weight="650">pick a layout,</text>
      <text x="206" y="820" font-size="12" font-weight="650">export as JPEG.</text>
    </g>
  </g>
</svg>
